<svg alt="Flowed Logo" xmlns="http://www.w3.org/2000/svg" class="c-icon c-icon-custom-size" role="img">
  <title>Flowed Logo</title>
  <g transform="matrix(0.1925470664551095,0,0,0.1925470664551095,-34.851842516904796,-66.37077106643966)">
    <path fill="#23930b" d="M697.02283,611.38182 c0,130.86 -106.24,237.1 -237.09,237.1 c-130.86,0 -237.09999,-106.24 -237.09999,-237.1 c0,-130.86 106.23999,-237.09999 237.09999,-237.09999 c130.85,0 237.09,106.23999 237.09,237.09999"/>
    <path fill="#dde096" d="m379.81183,482.75582c14.977,-9.905 29.155,-9.013 29.155,-9.013l202.522,0l-7.594,44.298c0,0 -1.321,10.695 -11.331,19.469c-8.948,7.843 -22.638,7.583 -22.638,7.583l-88.141,0l2.815,-18.164l-63.554,40.05l52.467,42.836l3.094,-18.012l80.159,0.748l2.784,-19.57l39.921,50.308l-52.393,47.808l2.573,-20.24l-50.227,0l-66.364,0c0,0 -10.483,-0.864 -16.163,5.281c-4.517,4.887 -6.375,15.208 -6.375,15.208l-15.334,91.987l-73.692,0l43.13,-256.194c0,0 2.61,-16.066 15.186,-24.383z"/>
  </g>
  <path fill="#383838" transform="skewX(-8.927563) scale(1.672668 1.730769)" d="M72.629333,49.688889 L72.629333,12.188888 L93.429321,12.188888 L93.429321,16.388899 L80.929321,16.388899 L80.929321,28.888899 L89.229309,28.888899 L89.229309,32.988873 L80.929321,32.988873 L80.929321,49.688889 M101.729309,49.688889 L101.729309,12.188888 L110.129341,12.188888 L110.129341,49.688889 M126.729286,20.488874 L135.129303,20.488874 C137.329285,20.488874 139.329285,21.388899 140.929291,22.988874 C142.529297,24.588881 143.429291,26.588881 143.429291,28.888899 L143.429291,41.388901 C143.429291,43.588882 142.529297,45.588882 140.929291,47.188889 C139.329285,48.888901 137.329285,49.688889 135.129303,49.688889 L126.729286,49.688889 C124.429314,49.688889 122.52932,48.888901 120.829315,47.188889 C119.229309,45.588882 118.429321,43.688889 118.429321,41.388901 L118.429321,28.888899 C118.429321,26.588881 119.229309,24.588881 120.829315,22.988874 C122.52932,21.388899 124.429314,20.488874 126.729286,20.488874 M126.729286,28.888899 L126.729286,41.388901 C126.729286,42.488876 127.129311,43.488876 127.929283,44.288895 C128.729279,45.088882 129.729248,45.488876 130.929291,45.488876 C132.029297,45.488876 133.029297,45.088882 133.829285,44.288895 C134.629303,43.488876 135.129303,42.488876 135.129303,41.388901 L135.129303,28.888899 C135.129303,27.688887 134.629303,26.688887 133.829285,25.888899 C133.029297,25.088881 132.029297,24.688887 130.929291,24.688887 C129.729248,24.688887 128.729279,25.088881 127.929283,25.888899 C127.129311,26.688887 126.729286,27.688887 126.729286,28.888899 M151.729279,20.488874 L160.129303,20.488874 L160.129303,45.488876 L164.229279,45.488876 C165.429291,45.488876 166.429291,45.088882 167.229279,44.288895 C168.029297,43.488876 168.429291,42.488876 168.429291,41.388901 L168.429291,20.488874 L176.729279,20.488874 L176.729279,45.488876 L180.929291,45.488876 C182.029297,45.488876 183.029297,45.088882 183.829285,44.288895 C184.629303,43.488876 185.129303,42.488876 185.129303,41.388901 L185.129303,20.488874 L193.429291,20.488874 L193.429291,35.488876 C193.429291,39.388901 192.029297,42.688889 189.229279,45.488876 C186.429291,48.288895 183.129303,49.688889 179.229279,49.688889 L168.429291,49.688889 L168.429291,48.388901 C166.829285,49.288895 164.829285,49.688889 162.529297,49.688889 L151.729279,49.688889 M226.729248,37.188889 L210.129303,37.188889 L210.129303,41.388901 C210.129303,42.488876 210.529297,43.488876 211.329285,44.288895 C212.129303,45.088882 213.129303,45.488876 214.229279,45.488876 L218.429291,45.488876 C221.229279,45.488876 222.629303,44.188889 222.629303,41.388901 L226.729248,41.388901 C226.129303,46.888901 223.329315,49.688889 218.429291,49.688889 L210.129303,49.688889 C207.829285,49.688889 205.829285,48.888901 204.229279,47.188889 C202.529297,45.588882 201.729279,43.688889 201.729279,41.388901 L201.729279,28.888899 C201.729279,26.588881 202.529297,24.588881 204.229279,22.988874 C205.829285,21.388899 207.829285,20.488874 210.129303,20.488874 L218.429291,20.488874 C220.729279,20.488874 222.629303,21.388899 224.329315,22.988874 C225.929291,24.588881 226.729248,26.588881 226.729248,28.888899 M210.129303,32.988873 L218.429291,32.988873 L218.429291,28.888899 C218.429291,27.688887 218.029297,26.688887 217.229279,25.888899 C216.429291,25.088881 215.429291,24.688887 214.229279,24.688887 C213.129303,24.688887 212.129303,25.088881 211.329285,25.888899 C210.529297,26.688887 210.129303,27.688887 210.129303,28.888899 M260.029114,49.688889 L251.829285,49.688889 L251.829285,45.488876 C251.42926,48.288895 250.029236,49.688889 247.529236,49.688889 L243.42926,49.688889 C241.129272,49.688889 239.229248,48.888901 237.529236,47.188889 C235.92926,45.588882 235.029236,43.688889 235.029236,41.388901 L235.029236,28.888899 C235.029236,26.588881 235.92926,24.588881 237.529236,22.988874 C239.229248,21.388899 241.129272,20.488874 243.42926,20.488874 L251.829285,20.488874 L251.829285,12.188888 L260.029114,12.188888 M251.829285,24.688887 L247.529236,24.688887 C246.42926,24.688887 245.42926,25.088881 244.629272,25.888899 C243.829285,26.688887 243.42926,27.688887 243.42926,28.888899 L243.42926,41.388901 C243.42926,42.488876 243.829285,43.488876 244.629272,44.288895 C245.42926,45.088882 246.42926,45.488876 247.529236,45.488876 C248.729248,45.488876 249.729248,45.088882 250.529236,44.288895 C251.329285,43.488876 251.829285,42.488876 251.829285,41.388901"/>
</svg>
